<?xml version="1.0" standalone="no"?>
<!DOCTYPE svg PUBLIC "-//W3C//DTD SVG 20010904//EN"
 "http://www.w3.org/TR/2001/REC-SVG-20010904/DTD/svg10.dtd">
<svg version="1.0" xmlns="http://www.w3.org/2000/svg"
 width="225.000000pt" height="225.000000pt" viewBox="0 0 225.000000 225.000000"
 preserveAspectRatio="xMidYMid meet">

<g transform="translate(0.000000,225.000000) scale(0.100000,-0.100000)"
fill="#000000" stroke="none">
<path d="M975 2143 c-86 -12 -202 -50 -300 -98 -183 -90 -327 -220 -428 -389
-35 -59 -39 -70 -26 -80 8 -6 84 -64 168 -130 83 -65 153 -117 155 -115 2 2
17 34 35 70 82 168 245 295 427 334 169 36 321 2 468 -102 l49 -35 143 143
144 143 -23 24 c-40 44 -185 133 -273 169 -126 51 -245 73 -389 71 -66 0 -133
-3 -150 -5z"/>
<path d="M1130 1115 l0 -195 276 0 277 0 -6 -34 c-11 -69 -59 -150 -132 -223
-39 -40 -69 -71 -65 -70 4 1 74 -49 156 -112 82 -63 154 -119 161 -124 8 -6
25 5 53 35 100 105 184 262 227 423 24 90 26 118 27 280 1 99 -2 188 -6 198
-7 16 -40 17 -488 17 l-480 0 0 -195z"/>
</g>
</svg>
